<svg xmlns="http://www.w3.org/2000/svg" version="1" width="512" height="511.993"><path d="M11.207 230.734l219.14-219.133c6.393-7.203 15.872-11.598 25.6-11.598 9.735 0 19.328 4.259 25.735 11.598l219.111 219.133c7.068 6.393 11.2 15.73 11.2 25.329v221.799c0 18.794-15.331 34.126-34.126 34.126h-443.734c-18.794 0-34.133-15.331-34.133-34.126v-221.799c0-9.6 4.146-18.937 11.207-25.329" fill="#9fd731"/><path d="M236.764 17.727l1.131-1.209c2.795-2.752 5.895-4.722 9.557-6.115.64-.228 1.273-.427 1.92-.619 4.259-1.124 8.284-1.173 12.572-.185l1.308.363c4.402 1.38 8.121 3.627 11.299 6.983l220.085 220.171 1.145 1.095c2.667 2.759 4.558 5.817 5.881 9.415.725 2.133 1.173 4.217 1.387 6.457.043.683.064 1.351.071 2.041l-.028 223.029c-.1 1.294-.256 2.517-.484 3.776-.284 1.237-.619 2.389-1.017 3.584-.775 1.963-1.65 3.669-2.788 5.433-.718 1.01-1.451 1.941-2.254 2.873-1.444 1.515-2.894 2.766-4.594 3.975-1.045.676-2.076 1.259-3.172 1.835-1.941.875-3.769 1.493-5.838 1.97-1.273.235-2.489.391-3.783.484l-444.907.028c-1.351-.028-2.617-.107-3.954-.292-1.252-.22-2.432-.484-3.648-.832-1.998-.683-3.747-1.472-5.575-2.532-1.038-.661-2.005-1.358-2.98-2.119-1.579-1.365-2.901-2.752-4.188-4.395-.718-1.01-1.358-2.012-1.977-3.079-.967-1.892-1.671-3.669-2.254-5.71-.284-1.252-.498-2.446-.661-3.705l-.135-2.695.007-222.347.071-1.323c.42-4.523 1.849-8.547 4.352-12.33 1.01-1.458 2.105-2.759 3.371-4.003l220.078-220.021z" fill-rule="evenodd"/><path d="M246.635 27.164l.967-1.038c1.977-1.956 4.451-3.193 7.211-3.534 3.584-.348 7.232 1.003 9.714 3.612l220.633 220.74.932.875c2.226 2.304 3.342 5.198 3.385 8.391l-.021 222.247-.121 1.166c-.526 2.944-1.87 5.227-4.124 7.182-1.387 1.095-2.759 1.806-4.466 2.29-1.081.256-2.048.334-3.157.363l-444.054-.014-1.159-.121c-2.944-.533-5.219-1.863-7.182-4.11-1.095-1.408-1.799-2.766-2.29-4.473-.249-1.088-.341-2.055-.37-3.172l.007-221.799c.128-3.1 1.372-5.966 3.584-8.149l220.512-220.455z" fill="#9fd731" fill-rule="evenodd"/><path d="M310.766 153.607c-2.133 1.7-4.416 3.229-6.933 4.267-2.56 1.038-5.234 1.657-8 1.778-1.97.085-3.925.022-5.867-.356l-.889 5.689-13.334 12.267-16.534 55.823-24.178 9.956-13.689-30.223-20.978-11.911c-1.685.96-3.285 1.948-5.156 2.489-1.742.498-3.506.875-5.333.889-2.66.043-5.255-.178-7.822-.889h-.533l-14.756 15.645-14.578 46.756-27.912 26.489 8 7.645 33.067-21.867 4.267-17.423 5.333 16.178-21.334 65.779 7.467 2.311-22.223 83.913 11.911 4.267 31.645-83.913 12.8.889 35.023 81.424 12.445-3.733-25.245-79.113c2.546-.555 5.085-1.223 7.645-1.778 2.233-.512 4.402-1.252 6.578-1.956l-12.8-39.29 31.823-7.645-6.578-32.178h-7.645l5.156-8-.889-1.956 27.378-7.467 7.111-12.445 10.489 43.734-20.445 64.357-5.689 97.957 22.4 1.956 8-81.424 13.689-30.401 10.489 41.779 38.756 72.357 20.445-9.956-36.445-75.201 3.733-64.89 38.756-11.378-10.311-37.867-9.956 1.422 3.2-20.445-31.645-60.09-17.067-7.645-2.845-6.578zm17.6 57.246l17.067 26.134-4.267 16-5.689 1.422-7.111-43.556zm-111.291 37.867l4.267 9.067-3.911 11.378-5.156.889 4.8-21.334zM315.52 130.866c-.228 8.775-3.854 16.149-11.171 21.198-8.491 5.859-19.847 5.667-28.33-.128-6.926-4.722-11.186-12.679-11.164-21.07 0-10.197 6.236-19.484 15.58-23.495 7.858-3.349 16.889-2.517 23.964 2.304 6.891 4.707 11.321 12.8 11.122 21.191M211.797 176.796c-.284 9.87-5.966 18.353-15.104 22.265-10.666 4.551-22.983.441-29.304-9.173-6.172-9.379-4.736-22.336 3.15-30.243 7.893-7.929 20.871-9.244 30.243-3.129 6.549 4.302 11.257 12.316 11.015 20.281" fill-rule="evenodd"/></svg>