<svg xmlns="http://www.w3.org/2000/svg" width="512" height="512" viewBox="0 0 509.99218 509.99211"><path d="M7.294 237.299l230.014-229.999c9.725-9.732 25.648-9.732 35.388 0l229.992 229.999c9.739 9.732 9.739 25.655 0 35.395l-229.992 229.999c-9.739 9.732-25.663 9.732-35.388 0l-230.014-229.999c-9.725-9.739-9.725-25.663 0-35.395" fill="#ffd033"/><path d="M12.842 240.961l228.115-228.115c7.721-7.721 20.35-7.721 28.085 0l228.101 228.115c7.721 7.721 7.721 20.35 0 28.071l-228.101 228.115c-7.735 7.721-20.364 7.721-28.085 0l-228.115-228.115c-7.721-7.721-7.721-20.35 0-28.071" fill-rule="evenodd"/><path d="M19.966 247.98l228.016-228.002c3.846-3.86 10.172-3.86 14.032 0l228.002 228.002c3.86 3.86 3.86 10.172 0 14.032l-228.002 228.002c-3.86 3.86-10.186 3.86-14.032 0l-228.016-228.002c-3.846-3.86-3.846-10.172 0-14.032" fill="#ffd033" fill-rule="evenodd"/><path d="M285.241 397.365c-5.107 2.345-6.694 6.219-6.694 11.361l-.014 26.286-49.809-.049c-.22-8.479-.078-17.963-.078-26.435 0-25.415 17.248-49.342 40.806-58.826 4.016-2.16 6.467-6.368 6.467-10.866 0-5.227-3.336-9.966-8.224-11.73-21.08-9.123-43.342-12.771-62.587-28.701-13.593-11.255-21.009-29.077-21.009-46.919 0-34.446 28.524-61.454 62.559-62.552 6.849-.213 12.502-5.667 12.502-12.551l-.014-18.353-27.568 8.224c-3.818 1.07-6.644 1.509-9.577-.489-4.207-2.862-5.312-8.627-2.444-12.835l64.592-95.496 64.698 95.496c2.869 4.207 1.757 9.973-2.444 12.835-2.812 1.912-5.716 1.565-9.187.687l-28.028-8.422.014 18.367c0 34.906-28.552 62.58-62.545 62.58-6.892 0-12.523 5.624-12.523 12.509 0 4.696 2.557 9.343 6.849 11.149 14.266 5.992 28.914 11.064 43.194 17.071 24.983 10.526 41.777 32.746 41.777 59.131 0 23.948-18.955 48.513-40.714 58.529" fill-rule="evenodd"/></svg>