<svg xmlns="http://www.w3.org/2000/svg" width="512" height="512" viewBox="0 0 361.74202 361.74207"><defs><clipPath><path d="M63 43h512.622v313.129h-512.622v-313.129z"/></clipPath></defs><path d="M52.874 52.874c70.485-70.499 185.488-70.499 255.988 0 70.506 70.499 70.506 185.488 0 255.994-70.499 70.499-185.503 70.499-255.988 0-70.499-70.506-70.499-185.495 0-255.994" fill="#ffd033" fill-rule="evenodd"/><path d="M55.892 55.903c68.834-68.827 181.117-68.827 249.944 0 68.82 68.835 68.82 181.11 0 249.938-68.827 68.827-181.109 68.827-249.944 0-68.827-68.827-68.827-181.103 0-249.938" fill-rule="evenodd"/><path d="M49.692 72.661c-49.814 62.686-49.814 153.741 0 216.42l105.083-108.21-105.083-108.21zM72.661 51.164c62.693-49.812 153.726-49.812 216.42 0l-108.224 105.084-108.196-105.084zM289.081 312.055c-62.693 49.806-153.726 49.806-216.42 0l108.196-105.088 108.224 105.088zM310.572 289.081c49.819-62.686 49.819-153.734 0-216.42l-105.079 108.21 105.079 108.21z" fill="#ffd033" fill-rule="evenodd"/><path d="M89.062 166.883c0 5.284-4.023 8.819-10.32 8.819h-20.378v-17.878h20.378c6.297 0 10.32 3.52 10.32 9.059m14.365 49.844l-13.09-30.713c7.289-4.023 11.567-11.071 11.567-19.132 0-8.054-4.278-15.094-11.071-18.884-3.775-2.252-7.055-3.017-12.339-3.017h-32.965v71.746h12.835v-28.205h19.132l11.567 28.205h14.365zM311.049 166.883c0 5.284-4.023 8.819-10.32 8.819h-20.378v-17.878h20.378c6.297 0 10.32 3.52 10.32 9.059m14.358 49.844l-13.083-30.713c7.303-4.023 11.567-11.071 11.567-19.132 0-8.054-4.264-15.094-11.085-18.884-3.761-2.252-7.027-3.017-12.325-3.017h-32.979v71.746h12.849v-28.205h19.118l11.581 28.205h14.358z" fill-rule="evenodd"/></svg>