<svg xmlns="http://www.w3.org/2000/svg" width="512" height="512"><path d="M505.148 239.39c9.135 9.135 9.135 24.086 0 33.221l-232.538 232.538c-9.137 9.135-24.086 9.135-33.221 0l-232.538-232.538c-9.135-9.135-9.135-24.086 0-33.221l232.538-232.538c9.135-9.135 24.084-9.135 33.221 0l232.538 232.538z" fill="#ffd033"/><path d="M243.541 11.005l-232.538 232.538c-6.851 6.853-6.852 18.063 0 24.917l232.538 232.538c6.853 6.851 18.063 6.851 24.915 0l232.54-232.538c6.851-6.853 6.851-18.063 0-24.917l-232.54-232.538c-6.851-6.852-18.063-6.851-24.915 0zm250.534 239.458c3.045 3.045 3.045 8.03 0 11.075l-232.538 232.538c-3.045 3.045-8.03 3.045-11.075 0l-232.538-232.538c-3.045-3.045-3.045-8.03 0-11.075l232.538-232.538c3.045-3.045 8.03-3.045 11.075 0l232.538 232.538zM198.333 163.399l-51.522 64.068-16.929-25.634c-.55-.844-1.241-1.616-2.069-2.282-4.212-3.388-10.373-2.719-13.761 1.494-1.342 1.668-2.047 3.642-2.148 5.628l-8.588 113.925 109.429-32.832c1.918-.524 3.695-1.636 5.037-3.304 3.389-4.213 2.719-10.375-1.494-13.761-.828-.666-1.73-1.174-2.672-1.531l-28.669-11.036 51.523-64.068-38.136-30.668zM313.668 163.399l51.521 64.068 16.93-25.634c.55-.844 1.24-1.616 2.068-2.282 4.213-3.388 10.373-2.719 13.761 1.494 1.342 1.668 2.047 3.642 2.147 5.628l8.589 113.925-109.429-32.832c-1.918-.524-3.695-1.636-5.037-3.304-3.389-4.213-2.719-10.375 1.494-13.761.826-.666 1.729-1.174 2.673-1.531l28.669-11.036-51.524-64.068 38.136-30.668z"/></svg>