<svg xmlns="http://www.w3.org/2000/svg" width="512" height="511.985" viewBox="0 0 491.53502 491.52051"><path d="M7.023 228.748l221.698-221.713c9.364-9.38 24.713-9.38 34.099 0l221.677 221.713c9.385 9.38 9.385 24.737 0 34.117l-221.677 221.621c-9.385 9.38-24.735 9.38-34.099 0l-221.698-221.621c-9.364-9.38-9.364-24.737 0-34.117" fill="#ffd033"/><defs><clipPath><path d="M63 43h512.622v313.129h-512.622v-313.129z"/></clipPath></defs><path d="M12.378 232.242l219.856-219.874c7.444-7.357 19.613-7.357 27.058 0l219.856 219.874c7.437 7.357 7.437 19.679 0 27.128l-219.856 219.782c-7.444 7.357-19.613 7.357-27.058 0l-219.856-219.782c-7.444-7.357-7.444-19.679 0-27.128" fill-rule="evenodd"/><path d="M19.256 239.047l219.75-219.782c3.719-3.678 9.803-3.678 13.522 0l219.764 219.782c3.719 3.678 3.719 9.748 0 13.518l-219.764 219.782c-3.719 3.678-9.803 3.678-13.522 0l-219.75-219.782c-3.726-3.678-3.726-9.84 0-13.518" fill="#ffd033" fill-rule="evenodd"/><path d="M215.645 342.133l.057 77.246h60.285v-136.927l-60.342 59.681zM294.156 146.629l-11.333 11.403 11.333 11.495-11.333 11.495-11.51-11.495-11.51 11.495 11.51 11.311-11.156 11.127-11.333-11.311-11.51 11.311 11.51 11.587-11.51 11.495-11.51-11.495-11.51 11.495 11.51 11.495-11.333 11.311-11.51-11.495-11.156 11.311 11.333 11.403-11.51 11.495-11.333-11.403-11.333 11.219 11.51 11.495-11.333 11.311-11.51-11.495-11.333 11.311 11.51 11.495-11.51 11.587 5.489 5.518 11.51-11.495 17 17.012-11.51 11.495 5.667 5.518 11.333-11.495 11.51 11.495 11.333-11.311-11.51-11.587 11.333-11.311 11.51 11.495 11.333-11.311-11.51-11.495 11.51-11.495 11.51 11.495 11.333-11.311-11.51-11.587 11.333-11.311 11.51 11.495 11.51-11.495-11.51-11.495 11.51-11.311 11.333 11.495 11.51-11.495-11.51-11.495 11.156-11.219 11.51 11.495 11.333-11.311-11.51-11.495 11.51-11.495 11.51 11.495 11.51-11.495-11.51-11.495 11.156-11.035-5.667-5.518-11.156 10.943-17-16.828 11.156-11.127-5.489-5.518-11.156 11.127-11.51-11.495zm5.667 28.323l17 17.012-11.51 11.679-17.177-17.104 11.687-11.587zm-23.02 22.898l17.177 17.196-11.156 11.127-17.177-17.196 11.156-11.127zm-22.489 22.622l17 17.012-11.51 11.495-17-17.012 11.51-11.495zm-23.02 23.082l17 17.012-11.156 11.311-17.177-17.196 11.333-11.127zm-22.666 22.438l17.177 17.196-11.51 11.311-17-17.012 11.333-11.495zm-22.666 22.898l17 16.92-11.333 11.403-17-17.012 11.333-11.311zM275.987 149.295l-.043-77.246h-60.299v136.927l60.342-59.681z" fill-rule="evenodd"/></svg>