<svg xmlns="http://www.w3.org/2000/svg" width="511.998" height="512" viewBox="0 0 462.95788 462.95952"><path d="M6.598 215.482l208.891-208.884c8.79-8.797 23.19-8.797 31.988 0l208.884 208.884c8.797 8.797 8.797 23.197 0 31.995l-208.884 208.891c-8.797 8.79-23.197 8.79-31.988 0l-208.891-208.891c-8.797-8.797-8.797-23.197 0-31.995" fill="#ffd033"/><path d="M12.672 217.439l204.754-204.768c7.735-7.728 20.371-7.728 28.099 0l204.754 204.768c7.735 7.721 7.735 20.364 0 28.078l-204.754 204.775c-7.728 7.721-20.364 7.721-28.099 0l-204.754-204.775c-7.721-7.714-7.721-20.357 0-28.078" fill-rule="evenodd"/><path d="M20.059 222.092l202.034-202.034c5.157-5.164 13.607-5.164 18.77 0l202.027 202.034c5.164 5.164 5.164 13.607 0 18.77l-202.027 202.041c-5.164 5.164-13.614 5.164-18.77 0l-202.034-202.041c-5.164-5.164-5.164-13.607 0-18.77" fill="#ffd033" fill-rule="evenodd"/><path d="M230.791 244.223c2.55-4.165 3.01-9.491.694-14.124-1.388-3.01-4.165-5.32-7.175-6.481l70.372-36.337c-.694 3.01-.46 6.481 1.155 9.484 2.55 4.632 7.182 7.409 12.034 7.643l-77.079 39.815zm-80.557 41.203c2.784-3.938 3.244-9.258.928-13.89 0-.234-.227-.46-.46-.694l38.887-20.137-3.697-7.409 19.904-10.186c-.694 3.244-.467 6.481 1.155 9.725 2.316 4.625 7.175 7.168 12.034 7.409l-68.75 35.182zm-37.959 5.093l13.89-7.182.46.701c2.316 4.625 6.949 7.402 11.801 7.636l-31.704 16.206 250.689.694-2.543-128.475-35.189 18.055c2.777-3.931 3.244-9.258.928-13.883-1.622-3.244-4.165-5.327-7.175-6.481l16.206-8.571-34.261-66.433-139.582 71.994 31.017 60.179-4.165 2.09-18.523-36.11-30.55 15.739v27.773l-31.485 16.206-2.316 6.021 12.502 23.842z" fill-rule="evenodd"/></svg>