<svg xmlns="http://www.w3.org/2000/svg" width="512" height="511.933" viewBox="0 -0.321 218.74226 218.71378"><path d="M103.511 216.003l-101.089-101.089c-3.23-3.23-3.23-8.495 0-11.724l101.084-101.084c3.23-3.232 8.5-3.235 11.729-.005l101.084 101.094c3.23 3.23 3.23 8.492 0 11.722l-101.084 101.087c-3.19 3.185-8.532 3.19-11.724 0" fill="#f4911d"/><path d="M105.12 214.356l-101.052-101.049c-2.324-2.329-2.319-6.181 0-8.51l101.047-101.047c2.329-2.326 6.176-2.321 8.512 0l101.042 101.052c2.324 2.329 2.329 6.173 0 8.505l-101.042 101.049c-2.331 2.314-6.181 2.321-8.507 0" fill-rule="evenodd"/><path d="M107.369 212.048l-100.991-100.991c-1.117-1.082-1.117-2.926 0-4.008l100.991-100.989c1.079-1.117 2.921-1.117 4.005 0l100.991 100.989c1.117 1.084 1.117 2.929-.004 4.013l-100.982 100.986c-1.084 1.117-2.926 1.117-4.01 0" fill="#f4911d" fill-rule="evenodd"/><path d="M64.296 85.666l7.132-6.783-3.824 9.483-3.307-2.7zm24.189 8.008l4.088 22.533-8.093-7.395 4.005-15.137zm-19.401 69.339h-9.047l1.912-60.815 2.088-5.22-10.788-10.53c8.906-8.989 17.805-17.978 26.706-26.972 4.51 4 9.308 4.878 14.274 4.005l6.439 59.424c9.072 7.656 18.151 15.31 27.233 22.967-6.612-12.141-3.619-25.321 7.915-21.835l29.667 8.959-30.192 30.104h-31.933l11.837-23.055-30.104-25.233 5.303 15.14-.954 33.06h-7.22l-1.217-27.928-7.566-13.659-4.354 41.587zm21.619-127.547c6.921 0 12.567 5.646 12.567 12.572 0 6.926-5.646 12.572-12.567 12.572-6.924 0-12.575-5.646-12.575-12.572 0-6.926 5.651-12.572 12.575-12.572" fill-rule="evenodd"/></svg>