<svg xmlns="http://www.w3.org/2000/svg" width="511.057" height="512"><defs><clipPath><path d="M325.828 661.809h61.5v61.5h-61.5v-61.5zm0 0"/></clipPath><clipPath><path d="M0 0h612v792h-612v-792zm0 0"/></clipPath><clipPath><path d="M0-.059h612v792h-612v-792zm0 0"/></clipPath></defs><g clip-path="url(#clip57)"><path d="M7.085 239.444l231.416-231.416c9.446-9.411 21.542-12.618 36.077 1.917l226.501 226.501 2.893 2.858c9.446 9.446 9.446 24.748 0 34.195l-231.416 231.416c-9.446 9.446-24.748 9.446-34.195 0l-231.277-231.277c-9.446-9.446-9.446-24.748 0-34.195zm0 0" fill="#fecf33"/><path d="M241.882 11.444l-231.416 231.416c-7.564 7.564-7.564 19.834 0 27.398l231.277 231.277c7.564 7.564 19.834 7.564 27.398 0l231.416-231.416c7.564-7.564 7.564-19.834 0-27.398l-231.277-231.277c-7.564-7.564-19.799-7.564-27.398 0"/><path d="M250.526 20.193l-232.183 232.218h-.037c-2.754 2.754-2.649 7.181.14 9.934l231.765 231.765c2.754 2.788 7.285 2.788 10.039 0l232.113-232.113c2.754-2.754 2.754-7.285 0-10.039l-231.765-231.765c-2.789-2.754-7.285-2.754-10.074 0" fill="#fecf33"/><path d="M163.105 132.502h8.157v52.076l41.759 48.835v49.358l-41.759 48.312v53.715h-8.157v-61.871l28.234-33.637v-59.675l-28.234-34.195v-62.917M347.324 131.945h-8.157v52.076l-41.759 48.835v49.392l41.759 48.277v53.715h8.157v-61.836l-28.234-33.672v-59.675l28.234-34.16v-62.952M251.537 130.864h8.714v52.634h-8.714v-52.634zm0 0M251.293 332.163h8.679v52.634h-8.679v-52.634zm0 0M251.537 230.172h8.714v54.238h-8.714v-54.238zm0 0"/></g></svg>