<svg xmlns="http://www.w3.org/2000/svg" width="511.991" height="512" viewBox="0 0 421.75529 421.76288"><path d="M414.914 194.367l-187.49-187.468c-4.335-4.363-10.363-6.899-16.532-6.899-6.155 0-12.162 2.536-16.546 6.899l-187.497 187.468c-4.356 4.363-6.864 10.348-6.849 16.546.043 6.155 2.507 12.176 6.849 16.532l187.497 187.461c4.342 4.342 10.426 6.849 16.56 6.856 6.127-.006 12.197-2.514 16.532-6.856l187.475-187.454c5.617-5.617 8.011-14.074 6.297-21.809-1.006-4.455-3.471-7.763-6.297-11.276" fill="#ffd033"/><path d="M410.281 222.813l-187.468 187.461c-3.152 3.138-7.466 4.93-11.907 4.93s-8.748-1.792-11.9-4.93l-187.546-187.468c-3.117-3.117-4.887-7.487-4.887-11.9.014-4.413 1.785-8.79 4.894-11.907l187.525-187.518c3.138-3.102 7.501-4.88 11.9-4.88 4.413 0 8.797 1.778 11.921 4.88l187.468 187.525c3.145 3.152 4.923 7.458 4.923 11.9 0 4.448-1.778 8.755-4.923 11.907" fill-rule="evenodd"/><path d="M403.822 216.339c1.424-1.41 2.252-3.442 2.252-5.433 0-1.969-.829-4.059-2.252-5.461l-187.497-187.482c-1.395-1.402-3.442-2.231-5.419-2.231-1.983 0-4.059.829-5.468 2.231l-187.504 187.482c-1.417 1.424-2.203 3.449-2.203 5.454.014 2.005.786 4.002 2.217 5.433l187.49 187.511c1.41 1.402 3.499 2.231 5.468 2.231 1.99 0 4.023-.829 5.433-2.231l187.483-187.504z" fill="#ffd033" fill-rule="evenodd"/><path d="M200.456 129.661c-.602-.907-1.169-1.714-2.182-2.217-.928-.46-1.82-.836-2.89-.836-1.062 0-2.231.007-3.187-.538-.892-.517-1.636-.992-2.373-1.721-.666-.673.312-1.771.73-2.295.489-.609 1.091-1.629 1.091-2.429 0-.524-.12-.999-.014-1.516.099-.482.305-.921.382-1.41.163-1.013-.29-1.948-.212-2.911.064-.942.177-1.82-.078-2.769-.588-2.182-1.934-3.343-3.811-4.413-3.407-1.948-9.073.198-10.412 3.874-.744 2.054-.914 4.151-.545 6.311.34 2.054 1.771 3.754 2.104 5.737.057.34.305 1.062.205 1.381-.149.496-.694.283-1.162.163-.779-.191-2.132.028-2.84.382-.836.425-1.721.772-2.706.772-.949 0-1.934-.538-2.862-.404-3.797.538-5.73 3.584-5.73 7.246h-8.223l1.459-26.88h111.516l1.898 27.39h-69.351c-.191-.992-.212-2.033-.807-2.918m95.579 149.864c-1.87-3.761-4.668-7.005-8.018-9.52-6.028-4.512-13.345-6.573-20.421-8.769-10.773-3.364-21.547-6.722-32.327-10.079-2.989-.935-5.886-2.047-8.755-3.322-3.882-1.728-7.742-3.499-11.078-6.162-1.629-1.303-3.01-2.918-3.761-4.859-.758-1.99-.347-4.016.765-5.794 1.077-1.735 2.628-3.138 3.995-4.646 1.459-1.615 3.166-2.77 5.029-3.853 3.669-2.16 7.841-3.01 11.921-4.009 3.967-.956 7.961-1.842 11.949-2.713 8.783-1.912 16.943-3.506 25.719-5.397l.191-.043c3.017-.722 6.573-3.287 7.154-6.531l.057-10.603.021-.475h10.341v-1.594c0-.51-.142-1.183.149-1.608.56-.843.914-1.721 1.07-2.706.156-1.062.078-1.969-.262-2.982-.163-.46-.375-.885-.567-1.332-.113-.269.312-1.176.375-1.516.482-2.224-.006-4.108-1.07-6.084-.397-.737-.191-2.153-.113-2.989.071-.708.057-1.417.057-2.139 0-4.838.035-9.683-.12-14.52-.142-3.995-.404-8.181-2.38-11.73-1.02-1.827-2.451-3.202-4.122-4.448-.489-.361-.786-.382-.857-.949l-.255-1.891c-.723-5.603-1.452-11.213-2.182-16.815l-2.061-15.866c-.156-1.218-.319-2.153-.871-3.265-.942-1.884-3.117-2.925-5.142-3.067-1.417-.092-105.736 0-113.726 0-2.047 0-4.214.007-5.794 1.587-1.077 1.077-1.778 2.274-1.976 3.797l-.666 5.227c-1.31 10.214-2.614 20.428-3.924 30.649-.05.382-1.615 1.07-1.941 1.395-.701.701-1.509 1.346-2.111 2.153-1.296 1.721-1.912 3.598-2.522 5.631-.552 1.827-.652 4.044-.715 5.943-.078 2.167-.113 4.335-.177 6.488-.149 4.448.035 8.896.035 13.337 0 .354.128.885.064 1.225-.071.425-.602.999-.8 1.424-.453.992-.652 1.976-.652 3.067 0 1.112.198 2.118.595 3.159.128.326-.361.822-.467 1.162-.184.538-.305 1.041-.397 1.608-.191 1.24.035 2.514.595 3.641.283.552.616.885.63 1.523.028.829.043 1.657.064 2.486l10.341-.078v7.48l.035.149.007 1.714c-1.346.297-3.159.687-4.307.949-4.292.97-8.592 1.948-12.877 2.904-4.229.949-8.422 2.033-12.629 3.017-4.002.935-8.223 1.643-11.949 3.442-4.115 1.983-7.798 4.229-11.043 7.473-2.954 2.954-5.149 6.63-6.028 10.724-.949 4.413-.34 8.698 1.544 12.764 1.764 3.818 5.036 7.055 8.592 9.222 3.527 2.16 7.522 3.655 11.354 5.22 3.931 1.601 7.869 3.301 11.921 4.59 9.605 3.074 19.224 6.134 28.828 9.208 3.173 1.006 6.311 2.075 9.371 3.364 3.938 1.657 7.947 3.372 11.255 6.12 3.4 2.826 3.782 7.267 3.109 11.333-.305 1.835-1.147 3.797-1.948 5.468-.97 2.019-1.927 4.002-3.102 5.921-2.309 3.747-4.965 7.26-8.167 10.313-3.216 3.067-6.729 5.659-10.525 7.968l-.524.319 6.771 10.993c7.09-4.788 13.876-10.462 18.905-17.46 2.635-3.662 4.979-7.359 6.998-11.397.999-1.997 1.955-3.988 2.819-6.042.751-1.792 1.034-4.044 1.247-5.95.97-8.698-3.067-16.787-9.895-22.036-3.449-2.656-7.451-4.292-11.397-6.07-.822-.375-1.714-.588-2.578-.857-2.111-.652-4.222-1.317-6.325-1.962-10.858-3.379-21.71-6.757-32.554-10.129-2.89-.9-5.702-1.948-8.471-3.173-3.903-1.735-7.891-3.499-11.269-6.148-1.665-1.31-3.088-2.932-3.931-4.887-.85-1.99-.418-4.137.652-5.936 1.02-1.693 2.642-3.301 4.037-4.689 1.523-1.523 3.173-2.77 5.022-3.86 3.683-2.16 7.891-3.046 11.992-4.009 4.271-1.02 8.571-1.941 12.856-2.911 8.578-1.969 17.219-3.669 25.811-5.581.17-.036.326-.085.446-.156 3.06-.949 6.184-2.939 6.205-6.24l.014-11.163h91.244l-.014 9.102c-1.388.319-3.265.751-4.328.992l-12.813 2.911c-4.278.956-8.535 2.04-12.813 3.039-4.073.942-8.117 1.806-11.963 3.513-4.094 1.82-7.763 4.292-10.936 7.458-2.876 2.883-5.454 7.055-5.999 11.142-.29 2.175-.467 4.214-.149 6.41.29 2.061.942 4.186 1.92 6.014 2.012 3.712 4.909 6.835 8.514 9.045 3.471 2.111 7.331 3.563 11.071 5.093 4.009 1.643 8.046 3.379 12.183 4.703 9.491 3.039 18.983 6.077 28.481 9.116 3.194 1.02 6.361 2.054 9.456 3.343 3.896 1.608 8.025 3.308 11.29 6.028 1.544 1.282 2.769 3.138 3.258 5.093.545 2.196.439 4.115.043 6.325-.375 2.033-1.176 3.896-2.012 5.773-.843 1.87-1.757 3.846-2.876 5.56-2.458 3.761-5.022 7.317-8.245 10.483-3.173 3.102-6.764 5.681-10.547 7.976l-.524.326 6.771 11c7.104-4.802 13.918-10.518 18.954-17.524 2.67-3.733 5.043-7.543 7.097-11.645 1.941-3.874 3.69-7.876 3.931-12.261.227-4.179-.248-8.365-2.153-12.162"/><path d="M157.447 113.802l-.184 3.435 8.684 8.436c.687-.567 1.487-1.006 2.394-1.289l-10.894-10.582z"/></svg>