<svg xmlns="http://www.w3.org/2000/svg" width="512" height="512" viewBox="0 0 462.36864 462.3686"><path d="M42.532 1.7h377.296c22.46 0 40.84 18.38 40.84 40.833v377.304c0 22.46-18.38 40.833-40.84 40.833h-377.296c-22.46 0-40.833-18.373-40.833-40.833v-377.303c0-22.453 18.373-40.833 40.833-40.833" fill="#fff" stroke="#000" stroke-width="3.4"/><path d="M42.532 11.898h377.296c16.857 0 30.648 13.79 30.648 30.633v377.304c0 16.857-13.79 30.64-30.648 30.64h-377.296c-16.843 0-30.626-13.783-30.626-30.64v-377.304c0-16.843 13.783-30.633 30.626-30.633" fill="#155196" fill-rule="evenodd"/><path d="M183.81 114.1c16.468-1.523 29.259-15.71 29.259-32.298 0-17.856-14.562-32.418-32.411-32.418-17.856 0-32.425 14.562-32.425 32.418 0 5.447 1.523 11.021 4.051 15.71l11.552 162.544 118.985.043 48.794 114.338 64.057-25.13-9.916-23.621-35.853 12.933-47.214-108.998-110.634.737-1.502-20.583 80.079.028v-30.456l-83.138-.035-3.683-65.212zM303.475 347.226c-20.073 39.692-62.117 65.849-106.937 65.849-65.849 0-119.566-53.709-119.566-119.559 0-46.23 28.027-89.194 69.837-108.247l2.713 35.315c-24.741 15.582-39.983 43.701-39.983 73.18 0 47.76 38.97 86.722 86.736 86.722 43.701 0 80.957-33.537 86.05-76.566l21.149 43.305z" fill="#fff" fill-rule="evenodd"/></svg>