<svg xmlns="http://www.w3.org/2000/svg" width="512" height="255.889" viewBox="0 0 299.35223 149.6113"><path d="M287.656 149.607l-275.96.004c-6.443 0-11.696-5.25-11.696-11.697v-126.222c-.004-6.436 5.253-11.693 11.696-11.693l275.96.004c6.443 0 11.693 5.25 11.693 11.693l.003 126.214c-.006 6.369-5.331 11.704-11.696 11.696" fill="#fecf33"/><path d="M287.615 146.365h-275.882c-4.638-.007-8.475-3.852-8.486-8.489l.004-126.14c-.004-4.638 3.848-8.471 8.486-8.486h275.875c4.645.011 8.482 3.841 8.486 8.493l.003 126.14c-.011 4.623-3.837 8.486-8.486 8.482" fill-rule="evenodd"/><path d="M287.556 141.822l-275.762-.007c-2.198.046-4.036-1.802-4-3.997l.004-126.02c-.039-2.195 1.798-4.039 3.997-3.997h275.758c2.198-.042 4.043 1.802 3.997 3.997l.006 126.02c.039 2.191-1.805 4.039-4 4.004" fill="#fecf33" fill-rule="evenodd"/><path d="M106.459 93.498h86.364l-6.301 20.975c-.655 2.588-.913 4.768.517 6.871 2.142 3.147 6.454 3.968 9.604 1.83l71.449-48.411-71.449-48.326c-3.151-2.145-7.463-1.32-9.604 1.827-1.494 2.195-1.161 4.312-.365 7.165l6.149 20.632h-86.364l6.223-20.632c.793-2.853 1.126-4.97-.368-7.165-2.138-3.147-6.454-3.972-9.604-1.827l-71.449 48.326 71.449 48.411c3.151 2.138 7.466 1.317 9.604-1.83 1.434-2.103 1.172-4.283.513-6.871l-6.369-20.975z" fill-rule="evenodd"/></svg>