<svg xmlns="http://www.w3.org/2000/svg" width="184.498" height="512" viewBox="0 0 184.49846 512"><path d="M181.354 498.372c0 5.793-4.692 10.483-10.483 10.483h-157.243c-5.791 0-10.483-4.69-10.483-10.483v-484.745c0-5.789 4.692-10.483 10.483-10.483h157.243c5.791 0 10.483 4.694 10.483 10.483v484.745z" fill="#fff"/><path d="M170.871 512h-157.243c-7.514 0-13.628-6.114-13.628-13.628v-484.745c0-7.514 6.114-13.628 13.628-13.628h157.243c7.514 0 13.628 6.114 13.628 13.628v484.745c0 7.514-6.114 13.628-13.628 13.628zm-157.243-505.71c-4.046 0-7.338 3.292-7.338 7.338v484.745c0 4.046 3.292 7.338 7.338 7.338h157.243c4.046 0 7.338-3.292 7.338-7.338v-484.745c0-4.046-3.292-7.338-7.338-7.338h-157.243zM170.871 159.893c0 5.791-4.692 10.483-10.483 10.483h-136.277c-5.791 0-10.483-4.692-10.483-10.483v-136.277c0-5.789 4.692-10.483 10.483-10.483h136.277c5.791 0 10.483 4.694 10.483 10.483v136.277z" fill="#1b1b1a"/><path d="M92.249 155.7c-35.26 0-63.945-28.685-63.945-63.945 0-35.26 28.685-63.945 63.945-63.945 35.258 0 63.945 28.685 63.945 63.945 0 35.26-28.687 63.945-63.945 63.945zm0-121.601c-31.792 0-57.656 25.863-57.656 57.656 0 31.792 25.863 57.656 57.656 57.656 31.79 0 57.656-25.863 57.656-57.656 0-31.792-25.865-57.656-57.656-57.656z" fill="#fff"/><path d="M170.871 324.139c0 5.791-4.692 10.483-10.483 10.483h-136.277c-5.791 0-10.483-4.692-10.483-10.483v-136.277c0-5.789 4.692-10.483 10.483-10.483h136.277c5.791 0 10.483 4.694 10.483 10.483v136.277z" fill="#1b1b1a"/><path fill="#f1e928" d="M142.181 282.687l4.111 9.43-10.282-.205 2.195 10.049-10.047-2.199.203 10.282-9.426-4.111-1.809 10.126-8.439-5.87-3.757 9.569-7.126-7.418-5.556 8.655-5.556-8.655-7.122 7.418-3.761-9.569-8.441 5.87-1.807-10.126-9.43 4.111.205-10.282-10.047 2.195 2.195-10.047-10.282.203 4.109-9.426-10.124-1.807 5.875-8.441-9.571-3.757 7.418-7.13-8.655-5.552 8.655-5.554-7.418-7.124 9.573-3.761-5.875-8.443 10.124-1.805-4.107-9.43 10.282.205-2.195-10.047 10.047 2.195-.205-10.279 9.428 4.107 1.805-10.124 8.441 5.877 3.759-9.573 7.126 7.418 5.554-8.655 5.552 8.655 7.126-7.418 3.763 9.573 8.441-5.875 1.805 10.124 9.43-4.109-.205 10.284 10.047-2.195-2.197 10.045 10.282-.203-4.111 9.426 10.126 1.807-5.87 8.443 9.569 3.757-7.418 7.124 8.655 5.556-8.655 5.556 7.418 7.122-9.569 3.763 5.87 8.439z"/><path d="M170.871 488.384c0 5.791-4.692 10.483-10.483 10.483h-136.277c-5.791 0-10.483-4.692-10.483-10.483v-136.277c0-5.789 4.692-10.483 10.483-10.483h136.277c5.791 0 10.483 4.694 10.483 10.483v136.277z" fill="#1b1b1a"/><path d="M92.249 484.191c-35.26 0-63.945-28.687-63.945-63.945 0-35.258 28.685-63.945 63.945-63.945 35.258 0 63.945 28.687 63.945 63.945 0 35.258-28.687 63.945-63.945 63.945zm0-121.601c-31.792 0-57.656 25.865-57.656 57.656 0 31.79 25.863 57.656 57.656 57.656 31.79 0 57.656-25.865 57.656-57.656 0-31.79-25.865-57.656-57.656-57.656z" fill="#fff"/></svg>