<svg xmlns="http://www.w3.org/2000/svg" width="240.941" height="512" viewBox="0 0 240.94118 512"><path fill="#8d8d8d" d="M0 0h15.059v512h-15.059zM225.882 0h15.059v512h-15.059zM124.235 0v25.098h-7.529v-25.098h-94.118v512h94.118v-25.098h7.529v25.098h94.118v-512h-94.118zm0 462.595h-7.529v-48.61h7.529v48.61zm0-72.915h-7.529v-48.61h7.529v48.61zm0-72.917h-7.529v-48.61h7.529v48.61zm0-72.915h-7.529v-48.61h7.529v48.61zm0-72.917h-7.529v-48.61h7.529v48.61zm0-72.915h-7.529v-48.612h7.529v48.612z"/><path fill="#e3c471" d="M15.059 0h7.529v512h-7.529z"/><path fill="#fff" d="M218.353 0h7.529v512h-7.529zM116.706 0h7.529v25.098h-7.529zM116.706 49.403h7.529v48.612h-7.529zM116.706 413.985h7.529v48.61h-7.529zM116.706 341.07h7.529v48.61h-7.529zM116.706 122.32h7.529v48.61h-7.529zM116.706 195.238h7.529v48.61h-7.529zM116.706 268.152h7.529v48.61h-7.529zM116.706 486.902h7.529v25.098h-7.529zM176.314 107.133v40.32c7.439.08 14.765 1.574 18.693 4.485l-4.219-40.41-12.745-4.076c-.56-.178-1.144-.271-1.729-.319zM201.951 113.83l-9.866-1.988 4.317 41.336c.743.826 1.252 1.737 1.456 2.743v53.752c-.188.299-.402.585-.627.866v46.088h2.457c2.796 0 5.072-2.274 5.072-5.072v-134.3c-.003-1.656-1.182-3.097-2.808-3.426zM151.688 256.627h2.457v-46.088c-.226-.281-.439-.57-.627-.866v-53.752c.203-1.004.713-1.917 1.456-2.743l4.317-41.339-9.866 1.99c-1.626.326-2.806 1.767-2.806 3.426v134.3c-.003 2.798 2.271 5.072 5.07 5.072zM156.366 151.939c3.928-2.909 11.254-4.405 18.693-4.485v-40.32c-.585.048-1.17.141-1.729.319l-12.745 4.078-4.219 40.408zM195.976 211.843c-8.521 7.642-32.058 7.642-40.579 0v44.785h40.579v-44.785z"/><path d="M202.2 112.6l-10.637-2.141-13.136-4.204c-1.774-.567-3.707-.567-5.481 0l-13.071 4.186-10.704 2.156c-2.209.444-3.812 2.404-3.812 4.656v134.3c0 3.489 2.839 6.327 6.327 6.327h48c3.489 0 6.327-2.839 6.327-6.327v-134.3c0-2.249-1.604-4.206-3.812-4.653zm2.557 138.955c0 2.796-2.274 5.072-5.072 5.072h-2.457v-46.088c.226-.281.439-.57.627-.866v-53.752c-.203-1.004-.713-1.917-1.456-2.743l-4.317-41.336 9.866 1.988c1.626.326 2.806 1.767 2.806 3.426v134.3zm-58.142-134.3c0-1.659 1.18-3.097 2.806-3.426l9.866-1.99-4.317 41.339c-.743.826-1.252 1.737-1.456 2.743v53.752c.188.299.402.585.627.866v46.088h-2.457c-2.796 0-5.072-2.274-5.072-5.072v-134.3zm44.175-5.727l4.219 40.41c-3.928-2.909-11.254-4.405-18.693-4.485v-40.32c.585.048 1.17.141 1.729.319l12.745 4.076zm3.303 53.7v37.647c-4.789 8.36-32.025 8.36-36.814 0v-37.647c4.505-10.755 32.309-10.755 36.814 0zm-19.034-58.094v40.32c-7.439.08-14.765 1.574-18.693 4.485l4.219-40.405 12.745-4.078c.56-.181 1.144-.274 1.729-.321zm-19.662 104.709c8.521 7.642 32.058 7.642 40.579 0v44.785h-40.579v-44.785z" fill="#231f20"/><path d="M157.279 165.228v37.647c4.789 8.36 32.025 8.36 36.814 0v-37.647c-4.505-10.755-32.309-10.755-36.814 0zM115.353 312.631l11.59 38.616c7.15-2.061 14.595-2.736 19.192-1.079l-15.656-37.491-13.38-.241c-.587-.008-1.175.075-1.747.196zM141.834 311.675l-10.019.934 16.018 38.347c.949.58 1.699 1.308 2.184 2.211l15.453 51.481c-.095.341-.216.678-.351 1.011l13.249 44.142 2.354-.705c2.675-.803 4.201-3.637 3.398-6.32l-38.613-128.627c-.477-1.589-2.02-2.63-3.672-2.475zM134.746 462.896l2.354-.705-13.249-44.142c-.296-.206-.582-.419-.851-.65l-15.453-51.481c-.095-1.021.133-2.04.605-3.049l-7.753-40.835-8.877 4.744c-1.463.783-2.179 2.502-1.702 4.088l38.613 128.63c.801 2.678 3.634 4.204 6.312 3.401zM109.126 361.279c2.926-3.918 9.515-7.457 16.615-9.673l-11.593-38.616c-.547.216-1.079.472-1.566.801l-11.033 7.572 7.577 39.916zM164.289 407.268c-5.963 9.771-28.506 16.537-38.864 11.666l12.878 42.895 38.864-11.666-12.878-42.895z" fill="#fff"/><path d="M141.719 310.425l-10.805 1.009-13.791-.251c-1.86-.03-3.712.525-5.248 1.576l-11.317 7.768-9.633 5.143c-1.985 1.064-2.959 3.398-2.312 5.557l38.613 128.63c1.004 3.343 4.54 5.245 7.881 4.242l45.972-13.801c3.341-1.001 5.243-4.538 4.237-7.881l-38.613-128.627c-.645-2.158-2.743-3.571-4.984-3.363zm42.398 132.352c.803 2.68-.72 5.514-3.398 6.32l-2.354.705-13.249-44.142c.136-.336.256-.673.351-1.011l-15.453-51.481c-.484-.904-1.235-1.629-2.184-2.211l-16.018-38.347 10.019-.934c1.651-.156 3.195.888 3.672 2.475l38.613 128.627zm-94.298-111.912c-.477-1.586.238-3.305 1.702-4.088l8.877-4.744 7.753 40.835c-.472 1.006-.7 2.028-.605 3.049l15.453 51.481c.266.231.555.444.851.65l13.249 44.142-2.354.705c-2.675.803-5.509-.72-6.315-3.398l-38.611-128.632zm40.661-18.186l15.656 37.491c-4.598-1.656-12.045-.984-19.192 1.079l-11.59-38.616c.575-.123 1.16-.203 1.747-.193l13.38.238zm18.603 50.482l10.825 36.058c-2.181 9.382-28.268 17.212-35.258 10.584l-10.825-36.056c1.222-11.598 27.851-19.594 35.258-10.586zm-34.934-50.168l11.593 38.616c-7.1 2.216-13.688 5.755-16.615 9.673l-7.58-39.913 11.033-7.572c.492-.331 1.024-.587 1.569-.803zm11.277 105.941c10.358 4.869 32.901-1.897 38.864-11.666l12.878 42.895-38.864 11.666-12.878-42.895z" fill="#231f20"/><path d="M113.825 373.747l10.825 36.056c6.99 6.631 33.077-1.202 35.258-10.584l-10.825-36.058c-7.406-9.008-34.035-1.011-35.258 10.586z" fill="#fff"/><g fill="#fff"><path d="M57.906 306.716v-11.156l-7.512-16.085h6.169l2.399 6.548c.74 1.98 1.267 3.436 1.832 5.213h.07c.53-1.699 1.094-3.273 1.8-5.213l2.399-6.548h6.029l-7.828 15.885v11.357h-5.358zM87.821 295.196h-8.744v6.468h9.768v5.052h-15.129v-27.241h14.635v5.055h-9.274v5.66h8.744v5.007zM92.7 300.408c1.411.851 3.667 1.699 5.961 1.699 2.467 0 3.772-1.172 3.772-2.989 0-1.656-1.129-2.668-3.983-3.802-3.95-1.614-6.561-4.121-6.561-8.122 0-4.648 3.421-8.162 8.993-8.162 2.716 0 4.656.605 6.066 1.373l-1.2 4.929c-.919-.522-2.645-1.293-4.937-1.293-2.327 0-3.456 1.252-3.456 2.625 0 1.737 1.305 2.507 4.407 3.885 4.196 1.777 6.136 4.284 6.136 8.159 0 4.568-3.032 8.448-9.557 8.448-2.716 0-5.394-.848-6.736-1.694l1.094-5.057z"/></g></svg>