<svg xmlns="http://www.w3.org/2000/svg" width="512.001" height="512" viewBox="0 0 512.00067 512"><path d="M4.754 244.523c-6.339 6.339-6.339 16.617 0 22.956l239.769 239.766c6.339 6.339 16.62 6.339 22.954 0l239.771-239.766c6.337-6.337 6.337-16.617 0-22.956l-239.771-239.769c-6.337-6.339-16.615-6.339-22.954 0l-239.769 239.769z" fill="#ecb121"/><path d="M256.003 489.683c-4.918 0-9.539-1.917-13.018-5.393l-215.274-215.274c-3.479-3.474-5.393-8.098-5.393-13.016 0-4.915 1.917-9.539 5.393-13.018l215.274-215.271c3.476-3.476 8.098-5.393 13.016-5.393 4.918 0 9.539 1.917 13.016 5.393l215.279 215.271c7.175 7.18 7.175 18.856 0 26.034l-215.279 215.274c-3.471 3.476-8.095 5.393-13.013 5.393zm-.003-459.695c-2.868 0-5.565 1.117-7.592 3.147l-215.276 215.271c-2.03 2.03-3.147 4.729-3.147 7.597 0 2.868 1.117 5.565 3.147 7.592l215.276 215.276c2.03 2.03 4.726 3.147 7.597 3.147 2.868 0 5.565-1.12 7.589-3.144l215.282-215.276c4.187-4.189 4.187-11.001 0-15.191l-215.282-215.271c-2.03-2.03-4.724-3.147-7.594-3.147z" fill="#231f20"/><path d="M181.958 384.592c0 8.047 5.112 14.572 11.418 14.572h125.248c6.308 0 11.421-6.526 11.421-14.572v-155.541c0-8.047-5.112-14.572-11.421-14.572h-125.248c-6.306 0-11.418 6.526-11.418 14.575v155.538z" fill="#fff"/><path d="M318.624 401.72h-125.248c-7.707 0-13.974-7.684-13.974-17.128v-155.538c0-9.447 6.268-17.131 13.974-17.131h125.248c7.707 0 13.977 7.684 13.977 17.128v155.541c0 9.445-6.27 17.128-13.977 17.128zm-125.248-184.685c-4.887 0-8.862 5.391-8.862 12.019v155.538c0 6.625 3.975 12.016 8.862 12.016h125.248c4.887 0 8.865-5.391 8.865-12.016v-155.541c0-6.625-3.977-12.016-8.865-12.016h-125.248z" fill="#231f20"/><g fill="#231f20"><path d="M220.746 254.643c0 1.357-.253 2.548-.759 3.573s-1.191 1.879-2.058 2.566c-.867.688-1.876 1.201-3.037 1.546-1.16.345-2.398.519-3.714.519-.892 0-1.72-.072-2.487-.22-.767-.148-1.442-.322-2.027-.529-.585-.207-1.076-.422-1.467-.649-.394-.227-.677-.427-.849-.598-.174-.171-.297-.422-.371-.749-.074-.327-.11-.797-.11-1.408 0-.412.013-.759.041-1.038.026-.279.069-.506.13-.68.061-.174.141-.297.24-.371.1-.074.215-.11.35-.11.187 0 .45.11.79.33.34.22.774.463 1.309.728.532.266 1.168.509 1.907.728.739.22 1.595.33 2.566.33.639 0 1.212-.077 1.718-.23.506-.153.936-.371 1.288-.649.353-.279.621-.626.808-1.038.187-.412.279-.872.279-1.378 0-.585-.161-1.089-.481-1.508-.32-.419-.736-.792-1.247-1.12-.514-.327-1.097-.631-1.748-.918-.652-.286-1.327-.588-2.017-.907-.693-.32-1.365-.682-2.017-1.089-.652-.406-1.235-.892-1.748-1.457-.514-.567-.928-1.235-1.247-2.007-.32-.772-.481-1.697-.481-2.776 0-1.237.23-2.326.69-3.264.46-.938 1.079-1.718 1.858-2.336.78-.619 1.697-1.081 2.755-1.388 1.058-.307 2.18-.46 3.364-.46.611 0 1.224.049 1.838.141.611.092 1.183.22 1.718.378.532.161 1.005.34 1.419.539.412.199.685.368.818.498.133.133.222.248.268.34.046.092.087.217.12.371.033.153.056.348.069.58.013.233.02.521.02.869 0 .386-.01.711-.031.979-.02.268-.054.486-.1.659-.049.171-.112.299-.199.378-.087.079-.204.12-.35.12-.148 0-.378-.092-.698-.279-.32-.187-.713-.389-1.178-.608-.468-.22-1.007-.419-1.618-.598-.613-.179-1.286-.268-2.017-.268-.573 0-1.071.069-1.498.21-.427.141-.782.332-1.068.58-.286.248-.498.542-.639.89-.141.348-.21.711-.21 1.099 0 .573.156 1.068.47 1.488.312.419.731.792 1.258 1.12.527.327 1.12.631 1.787.918.665.286 1.345.588 2.037.907.693.32 1.37.682 2.037 1.089.665.406 1.258.892 1.776 1.457.519.565.938 1.229 1.258 1.996.32.767.483 1.664.483 2.702zM242.453 244.398c0 1.449-.227 2.735-.68 3.855-.452 1.12-1.112 2.06-1.976 2.824-.867.767-1.927 1.347-3.185 1.748s-2.74.598-4.442.598h-2.157v8.248c0 .133-.043.253-.13.36-.087.107-.23.192-.429.261-.199.069-.468.12-.8.161-.332.041-.759.059-1.278.059-.506 0-.928-.02-1.268-.059-.34-.038-.608-.092-.808-.161-.199-.069-.34-.153-.419-.261-.079-.107-.12-.227-.12-.36v-23.245c0-.626.161-1.097.488-1.408.325-.312.754-.47 1.288-.47h6.091c.611 0 1.194.023 1.748.069.552.049 1.214.148 1.986.299.772.153 1.554.437 2.346.849s1.467.936 2.027 1.567c.56.631.984 1.37 1.278 2.216.291.851.44 1.799.44 2.85zm-5.49.381c0-.905-.161-1.651-.481-2.237-.32-.585-.713-1.017-1.178-1.298-.468-.279-.956-.458-1.467-.529-.514-.072-1.043-.11-1.587-.11h-2.237v8.767h2.357c.838 0 1.541-.112 2.106-.34.565-.227 1.028-.542 1.388-.948.36-.406.631-.892.818-1.457.187-.567.281-1.181.281-1.848zM261.841 260.335c0 .386-.015.708-.051.969-.033.261-.082.47-.151.629-.064.161-.151.276-.25.35-.1.074-.21.11-.33.11h-12.98c-.44 0-.808-.13-1.109-.389-.302-.258-.45-.682-.45-1.268v-22.527c0-.585.151-1.01.45-1.268.299-.258.67-.389 1.109-.389h12.898c.12 0 .227.033.32.1.095.066.174.181.24.35.066.166.118.378.151.639.036.261.051.588.051.989 0 .373-.015.69-.051.948-.033.261-.082.47-.151.629-.064.161-.146.276-.24.35-.092.072-.199.11-.32.11h-9.225v6.311h7.806c.12 0 .23.038.33.11.1.072.184.187.25.34.066.153.118.36.151.619.036.261.051.578.051.948 0 .386-.015.705-.051.959-.033.253-.082.458-.151.608-.064.153-.151.263-.25.33-.1.066-.21.1-.33.1h-7.806v7.29h9.304c.12 0 .23.038.33.11.1.072.184.189.25.35.066.161.118.371.151.629.041.253.054.575.054.964zM281.791 260.335c0 .386-.015.708-.051.969-.033.261-.082.47-.151.629-.064.161-.151.276-.25.35-.1.074-.21.11-.33.11h-12.98c-.44 0-.808-.13-1.109-.389-.302-.258-.45-.682-.45-1.268v-22.527c0-.585.151-1.01.45-1.268.299-.258.67-.389 1.109-.389h12.901c.12 0 .227.033.32.1.095.066.174.181.24.35.066.166.118.378.151.639.036.261.051.588.051.989 0 .373-.015.69-.051.948-.033.261-.082.47-.151.629-.064.161-.146.276-.24.35-.092.072-.199.11-.32.11h-9.225v6.311h7.809c.12 0 .23.038.33.11.1.072.184.187.25.34.066.153.118.36.151.619.036.261.051.578.051.948 0 .386-.015.705-.051.959-.033.253-.082.458-.151.608-.064.153-.151.263-.25.33-.1.066-.21.1-.33.1h-7.809v7.29h9.307c.12 0 .23.038.33.11.1.072.184.189.25.35.066.161.118.371.151.629.033.253.049.575.049.964zM307.891 249.091c0 2.369-.309 4.396-.928 6.081-.619 1.684-1.508 3.057-2.666 4.123-1.158 1.066-2.566 1.848-4.223 2.346-1.656.498-3.63.749-5.92.749h-6.17c-.44 0-.808-.13-1.109-.389-.302-.258-.45-.682-.45-1.268v-22.527c0-.585.151-1.01.45-1.268.299-.258.67-.389 1.109-.389h6.63c2.303 0 4.258.268 5.861.808 1.605.539 2.955 1.337 4.054 2.398 1.099 1.061 1.935 2.367 2.505 3.924.573 1.559.856 3.364.856 5.411zm-5.432.181c0-1.224-.143-2.364-.429-3.415-.284-1.051-.744-1.966-1.378-2.735-.631-.772-1.442-1.375-2.436-1.807-.992-.432-2.29-.649-3.903-.649h-2.656v17.573h2.735c1.439 0 2.651-.187 3.635-.56.987-.373 1.807-.936 2.467-1.687.659-.751 1.153-1.687 1.477-2.807.327-1.12.488-2.423.488-3.913z"/></g><g fill="#231f20"><path d="M225.468 295.98c0 .399-.018.736-.051 1.01-.033.271-.084.498-.151.68-.066.179-.151.309-.25.389-.1.079-.217.12-.35.12h-11.842c-.44 0-.808-.13-1.109-.389-.302-.258-.45-.682-.45-1.268v-23.465c0-.133.043-.253.13-.36.087-.107.23-.192.429-.261.199-.069.47-.12.808-.161.337-.041.762-.059 1.268-.059.519 0 .946.02 1.278.059.332.041.598.092.8.161.202.069.343.153.429.261.087.107.13.227.13.36v20.789h8.128c.133 0 .25.038.35.11.1.072.181.192.25.36.066.166.115.386.151.659.036.268.051.606.051 1.005zM233.836 297.457c0 .133-.043.253-.13.36-.087.107-.23.192-.429.261-.199.069-.468.12-.8.161-.332.041-.759.059-1.278.059-.506 0-.928-.02-1.268-.059-.34-.038-.608-.092-.808-.161-.199-.069-.343-.153-.429-.261-.087-.107-.13-.227-.13-.36v-24.403c0-.133.043-.253.13-.36.087-.107.233-.192.44-.261.207-.066.475-.12.808-.161.332-.041.751-.059 1.258-.059.519 0 .946.02 1.278.059.332.041.598.092.8.161.202.069.343.153.429.261.087.107.13.227.13.36v24.403zM269.581 297.457c0 .133-.036.253-.11.36-.072.107-.204.192-.399.261-.192.066-.45.12-.769.161-.32.041-.723.059-1.219.059-.481 0-.879-.02-1.199-.059-.32-.038-.573-.092-.759-.161-.184-.066-.32-.153-.399-.261-.079-.107-.12-.227-.12-.36v-21.029h-.041l-7.487 21.008c-.054.171-.141.317-.261.429-.12.112-.284.202-.488.268-.207.066-.47.11-.79.13-.32.02-.705.031-1.158.031-.452 0-.838-.018-1.158-.051-.32-.033-.583-.087-.79-.161-.207-.072-.371-.161-.488-.268-.118-.107-.199-.233-.24-.378l-7.229-21.008h-.041v21.029c0 .133-.038.253-.11.36-.074.107-.21.192-.409.261-.199.069-.458.12-.769.161-.314.041-.716.059-1.209.059-.481 0-.879-.02-1.199-.059-.32-.038-.578-.092-.769-.161-.194-.066-.327-.153-.399-.261-.074-.107-.11-.227-.11-.36v-23.025c0-.68.179-1.199.539-1.557.36-.358.838-.539 1.439-.539h3.435c.611 0 1.137.051 1.577.151.44.1.818.266 1.137.498.32.233.585.539.8.918.212.378.399.849.56 1.408l5.593 15.395h.079l5.79-15.357c.174-.56.366-1.03.57-1.419.207-.386.447-.698.718-.938.274-.24.596-.409.969-.509.373-.1.805-.151 1.298-.151h3.535c.36 0 .67.049.928.141.258.092.475.23.639.409.166.179.294.399.378.659.087.261.13.557.13.89v23.025zM280.482 297.457c0 .133-.043.253-.13.36-.084.107-.23.192-.429.261-.199.069-.465.12-.8.161-.332.041-.759.059-1.278.059-.504 0-.928-.02-1.268-.059-.34-.038-.608-.092-.808-.161-.199-.069-.343-.153-.429-.261-.084-.107-.13-.227-.13-.36v-24.403c0-.133.046-.253.13-.36.087-.107.235-.192.44-.261.207-.066.478-.12.808-.161.335-.041.754-.059 1.258-.059.519 0 .946.02 1.278.059.335.041.598.092.8.161.202.069.345.153.429.261.087.107.13.227.13.36v24.403zM303.308 274.493c0 .386-.015.716-.051.989-.033.271-.082.491-.151.659-.064.166-.151.289-.25.371-.1.082-.21.12-.33.12h-6.469v20.827c0 .133-.043.253-.13.36-.084.107-.23.192-.429.261-.199.069-.47.12-.808.161-.337.041-.762.059-1.268.059-.504 0-.928-.02-1.268-.059-.34-.038-.608-.092-.808-.161-.199-.069-.343-.153-.429-.261-.084-.107-.13-.227-.13-.36v-20.827h-6.469c-.133 0-.245-.041-.34-.12-.092-.079-.171-.202-.24-.371-.064-.166-.115-.386-.151-.659-.033-.271-.051-.601-.051-.989 0-.399.018-.739.051-1.017.036-.279.084-.501.151-.67.066-.166.148-.286.24-.36.095-.072.207-.11.34-.11h18.212c.12 0 .23.038.33.11.1.072.184.192.25.36.066.166.118.389.151.67.033.279.049.619.049 1.017z"/></g><path d="M249.61 361.388h-49.844c-2.822 0-5.112-2.29-5.112-5.112s2.29-5.112 5.112-5.112h49.844c2.822 0 5.112 2.29 5.112 5.112s-2.29 5.112-5.112 5.112zM199.763 361.388c-1.255 0-2.513-.46-3.499-1.385-2.058-1.935-2.16-5.168-.225-7.226l39.619-42.175c1.935-2.058 5.168-2.16 7.226-.227 2.058 1.935 2.16 5.168.225 7.226l-39.619 42.175c-1.005 1.071-2.364 1.613-3.727 1.613zM239.385 380.558c-2.822 0-5.112-2.29-5.112-5.112v-61.346c0-2.822 2.29-5.112 5.112-5.112s5.112 2.29 5.112 5.112v61.346c0 2.822-2.29 5.112-5.112 5.112zM271.337 349.885c-2.822 0-5.112-2.29-5.112-5.112v-30.673c0-2.822 2.29-5.112 5.112-5.112s5.112 2.29 5.112 5.112v30.673c0 2.822-2.288 5.112-5.112 5.112zM308.4 319.212h-37.063c-2.822 0-5.112-2.29-5.112-5.112s2.29-5.112 5.112-5.112h37.063c2.822 0 5.112 2.29 5.112 5.112s-2.288 5.112-5.112 5.112zM290.592 379.973c-9.636 0-19.084-4-23.508-10.638-1.564-2.349-.93-5.524 1.419-7.088 2.346-1.572 5.521-.93 7.088 1.419 3.387 5.079 13.624 7.535 21.486 5.163 4.581-1.388 10.045-4.897 10.045-13.744 0-11.663-7.487-14.902-11.95-15.797-7.875-1.577-16.806 1.907-19.117 7.454-1.084 2.605-4.072 3.847-6.684 2.75-2.607-1.086-3.837-4.08-2.75-6.684 4.238-10.173 17.665-16.129 30.558-13.545 12.44 2.487 20.17 12.382 20.17 25.822 0 11.623-6.308 20.198-17.307 23.529-3.055.923-6.26 1.36-9.45 1.36zM346.503 134.967l-87.873-87.878c-1.452-1.449-3.801-1.449-5.248 0l-87.878 87.878c-1.452 1.452-1.449 3.798 0 5.248l61.103-12.786v51.198c0 1.414 1.145 2.556 2.556 2.556h53.678c1.414 0 2.556-1.143 2.556-2.556v-51.201l61.106 12.788c1.449-1.452 1.449-3.798 0-5.248z" fill="#231f20"/></svg>