<svg xmlns="http://www.w3.org/2000/svg" width="511.996" height="512" viewBox="0 0 509.98686 509.99034"><path d="M7.273 237.363l230.09-230.09c9.697-9.697 25.563-9.697 35.26 0l230.097 230.09c9.69 9.697 9.69 25.563 0 35.26l-230.097 230.09c-9.697 9.704-25.563 9.704-35.26 0l-230.09-230.09c-9.697-9.697-9.697-25.563 0-35.26" fill="#fecf33"/><path d="M13.959 239.521l225.557-225.564c8.521-8.507 22.439-8.507 30.953 0l225.557 225.564c8.514 8.514 8.514 22.439 0 30.946l-225.557 225.564c-8.514 8.507-22.432 8.507-30.953 0l-225.557-225.564c-8.507-8.507-8.507-22.432 0-30.946" fill-rule="evenodd"/><path d="M22.771 245.452l222.681-222.681c5.249-5.249 13.833-5.249 19.089 0l222.674 222.681c5.249 5.249 5.249 13.841 0 19.089l-222.674 222.681c-5.256 5.242-13.841 5.242-19.089 0l-222.681-222.681c-5.249-5.249-5.249-13.841 0-19.089" fill="#fecf33" fill-rule="evenodd"/><path d="M223.886 312.538l-114.542-113.848 44.454-44.603 101.176 101.282 101.665-101.587 44.447 44.603-114.677 114.33v113.692h-62.552l.028-113.869z" fill-rule="evenodd"/></svg>