<svg xmlns:rdf="http://www.w3.org/1999/02/22-rdf-syntax-ns#" xmlns="http://www.w3.org/2000/svg" enable-background="new 0 0 385.422 511.996" xml:space="preserve" height="512" viewBox="0 0 385.35401 512" width="385.35" version="1.1" y="0px" x="0px" xmlns:cc="http://creativecommons.org/ns#" xmlns:dc="http://purl.org/dc/elements/1.1/"><path d="m26.306 509.5h332.78c6.271 0 12.412-2.5074 16.838-6.9091 4.4-4.3777 6.932-10.459 6.932-16.649v-459.87c0-6.189-2.531-12.259-6.932-16.661-4.426-4.3897-10.566-6.9081-16.838-6.9081h-332.78c-6.249 0-12.388 2.5194-16.79 6.9081-4.4538 4.4009-7.0198 10.471-7.0198 16.66v459.87c0 8.0603 4.354 15.712 11.225 20.043 3.91 2.4824 8.047 3.0465 12.581 3.5136" stroke="#000" stroke-width="5.0004" fill="#ffd033"/><path d="m192.72 33.661 176.29 224.45-176.29 223.21-176.33 0.09 176.27-223.38-175.18-224.37l175.24 0.001z"/></svg>
