<svg xmlns="http://www.w3.org/2000/svg" width="429.329" height="512" viewBox="0 0 429.32883 512"><path d="M101.637.425c5.441-.473 13.91-2.011 13.461 6.269 5.252 3.241 12.633 2.957 16.347 8.469 6.293 8.138 4.802 19.02 6.979 28.506.757 8.99-.213 18.003-1.419 26.921 6.198-6.032 11.828-13.721 21.338-14.147 6.056 17.79 1.609 36.999-5.465 53.795 6.577 3.004 13.603 6.08 18.074 12.065 2.579 3.075 4.258 6.979 7.381 9.581 18.097 1.727 36.573 3.028 54.505 4.306 28.293-30.375 55.498-61.886 84.594-91.599 4.897-.142 9.818 0 14.717.402-25.242 25.644-49.703 52.092-73.383 79.202-28.246 31.014-50.199 67.824-82.585 94.981-4.376 5.11-11.379 3.217-17.198 2.957 13.295-12.704 26.33-25.667 38.466-39.53l-12.349-.899c-2.389-.923-4.755-1.845-7.121-2.815-3.572-1.396-7.002-5.086-11.095-3.927-5.133 2.744-9.699 7.192-15.803 7.499-5.938.639-11.876 1.136-17.813 1.514 7.641-7.215 17.979-12.917 20.392-24.082 5.181-12.112-1.514-24.65-8.469-34.444-5.299 7.996-10.314 16.181-15.117 24.485.923 1.372 2.744 4.14 3.643 5.512-.828 7.996-2.602 15.826-3.785 23.775 4.779 23.87 9.51 47.81 16.678 71.112 5.323-.804 10.669-1.538 16.063-1.538 6.789.686 13.484 2.295 20.297 2.886 4.897 2.271 8.445 6.979 13.91 8.041 5.228.662 10.504.591 15.755.757-3.075-12.301-3.643-25.029-1.443-37.496-3.478-1.065-6.931-2.176-10.385-3.288-1.727-10.504 4.045-19.659 10.078-27.631 38.986-48.898 81.024-95.313 124.741-140 3.951-4.968 11.116-1.561 16.394-2.271-13.25 17.198-29.997 31.321-44.025 47.855-19.375 20.794-37.945 42.298-57.036 63.352-12.323 14.951-25.786 29.618-33.119 47.834 0 1.136 0 3.383-.024 4.495l4.306-.189c35.722-52.518 79.652-98.719 121.359-146.387 3.43-4.802 9.155-6.458 14.596-7.83l-2.65 3.312c-44.782 51.075-91.788 100.73-129.378 157.553 5.323.615 10.693.852 16.063.402 1.964-5.181 4.542-10.149 8.022-14.502 18.026-23.586 37.898-45.705 58.053-67.492 2.907-4.022 7.83-5.181 12.394-6.198-14.785 18.05-31.792 34.252-46.246 52.66-8.59 11.261-18.999 21.835-23.042 35.792 11.213-1.301 22.781-4.897 33.969-1.656-10.927 3.407-22.403 3.619-33.734 3.951-3.336 4.944-6.695 9.888-10.338 14.62 1.422 2.342 2.815 4.708 4.235 7.073 1.656 4.518 3.643 8.919 5.633 13.316 4.8.189 9.579.379 14.381.781-4.471 1.469-8.921 3.101-13.626 3.572-25.951 2.42-51.903 6.442-78.043 5.001-2.531-5.372-4.518-13.841-12.041-13.508-11.261 1.632-21.386 7.52-32.504 9.841-6.506 8.28-12.68 17.837-11.852 28.861-1.656 18.975 7.712 36.027 14.265 53.156-4.968.095-9.936.237-14.904.473-1.538-3.146-3.099-6.293-4.589-9.463-6.624-17.125-14.62-36.408-7.688-54.694 3.075-7.946 8.138-16.134 16.536-19.183 5.465-2.084 12.325-6.035 11.686-12.822-3.501-22.308-13.39-43.623-12.94-66.546-.639-7.121.639-15.85-5.299-21.125-4.353-4.164-9.557-10.172-16.299-8.445-9.06 2.011-18.216 3.69-27.418 5.015-.189 36.928-7.901 73.194-10.953 109.885-1.585 24.13.568 48.804 9.06 71.585 13.721 5.891 28.932 6.08 43.528 8.022-.568.379-1.703 1.159-2.271 1.535-6.671 5.751-16.016 2.957-24.011 3.43-9.581.66-20.416-3.617-23.538-13.437-9.794-28.648-10.48-59.83-6.718-89.611.568-11.237 3.052-22.237 4.14-33.403 2.129-9.131 1.656-18.594 2.342-27.868-10.03-2.129-20.439-.757-30.422-3.288-11.426-2.153-23.42-7.31-29.169-18.05-9.723-23.922 7.996-54.249 33.498-57.893 8.54-1.112 17.175-.568 25.762-.544-3.596-25.502 1.065-51.098 9.368-75.204 3.903-1.443 7.83-2.886 11.994-3.359 2.105-6.316 1.751-13.177 4.282-19.375 2.153.449 6.458 1.348 8.587 1.774.26-3.572.568-7.144.946-10.693l4.424.591.071-2.342z" fill="#201e1f"/><path d="M103.411 1.703c6.458-.355 13.65 7.097 8.114 12.893-.852 15.164-1.088 30.612 1.798 45.586 3.17-.426 6.364-.852 9.534-1.301-3.667-13.768-2.389-28.104-2.626-42.18 6.151 1.514 4.755 8.445 6.624 12.987 1.514 17.222-.095 34.515 1.041 51.737.781 4.968 8.398 4.518 10.669.828 4.045-5.867 7.665-12.041 12.562-17.293.497 9.463.923 19.044-1.112 28.364-5.867 18.5-15.779 35.272-25.762 51.784-6.955-4.447-14.147-8.516-21.717-11.828-8.611-1.869-17.79-.142-25.833 3.288l-5.63 1.23c.544-15.755-3.548-31.085-4.826-46.675-.379-9.605 1.703-19.091 3.123-28.53 2.011-8.8 4.518-17.482 6.86-26.212 1.632-1.088 4.897-3.265 6.553-4.353 1.277 9.888-3.69 19.966-.189 29.547 1.017-.189 3.075-.568 4.093-.733-.828-12.112 1.893-23.964 2.981-35.934-.024-4.045 1.443-9.321 6.553-9.25.308 12.538-.733 25.289 1.845 37.638.804-8.777.568-17.601 1.822-26.33 2.484-8.256.189-17.269 3.525-25.265z" fill="#fff"/><path d="M16.923 133.588c5.11-13.745 20.652-17.601 33.64-19.304 4.376-.284 8.729-.544 13.106-.875 3.785 23.16.071 46.367.071 69.621-11.994-.071-24.934-1.112-34.728-8.8-12.207-9.202-15.542-26.424-12.089-40.642zM130.072 149.935c4.802-8.303 9.818-16.489 15.117-24.485 6.955 9.794 13.65 22.332 8.469 34.444-2.413 11.166-12.751 16.867-20.392 24.082 5.938-.379 11.876-.875 17.813-1.514-4.566 4.755-11.686 2.886-17.577 3.619 3.194 20.534 9.202 40.429 13.981 60.632 5.086.568 10.149 1.254 15.188 2.082-5.394 0-10.74.733-16.063 1.538-7.168-23.302-11.899-47.242-16.678-71.112 1.183-7.949 2.957-15.779 3.785-23.775-.899-1.372-2.721-4.14-3.643-5.512z" fill="#bcbdc1"/><path d="M83.587 140.165l4.826-1.301c1.916 1.585 3.832 3.17 5.772 4.755-1.632 2.933-3.454 5.772-5.299 8.564-2.981-2.176-5.914-4.424-8.895-6.648 1.23-1.774 2.437-3.572 3.596-5.37zM169.508 162.379c.639-8.422 1.159-16.891.26-25.313 7.57.118 15.259-.142 22.687 1.561 8.54 1.94 17.411.52 25.951 2.555 3.359.26 6.718.544 10.078.828-8.895 11.899-18.618 23.302-28.837 34.066-11.663.379-21.338-7.026-30.139-13.697zM105.895 145.015l4.306-.26c3.927 2.46 7.712 5.204 11.119 8.398l2.768 2.839c-6.245 1.112-10.22-4.211-14.596-7.57-1.206-1.159-2.389-2.271-3.596-3.407zM70.718 158.664c9.202-1.325 18.358-3.004 27.418-5.015 6.742-1.727 11.947 4.282 16.299 8.445 5.938 5.275 4.66 14.005 5.299 21.125-.449 22.923 9.439 44.238 12.94 66.546.639 6.789-6.222 10.74-11.686 12.822-8.398 3.049-13.461 11.237-16.536 19.183-6.931 18.287 1.065 37.569 7.688 54.694.899 3.525 1.68 7.073 2.484 10.645l-2.271 1.041c-14.596-1.94-29.807-2.129-43.528-8.022-8.493-22.781-10.645-47.455-9.06-71.585 3.052-36.687 10.764-72.952 10.953-109.88z" fill="#fff"/><path d="M413.81 203.565c3.291-4.235 8.682-5.394 13.39-7.357.523 1.159 1.585 3.454 2.129 4.613l-5.086.686c-15.658 16.631-30.328 34.231-45.35 51.453-27.371 32.244-55.049 64.37-78.99 99.287-3.478 4.992-8.682 8.329-13.484 11.878 4.022.828 8.067 1.677 12.112 2.508 2.437 6.695 5.204 13.295 8.067 19.848 1.301 3.359 2.673 6.718 3.974 10.104 6.316 14.927 12.585 29.878 19.566 44.519 6.032 12.138 12.656 23.967 20.037 35.322-3.123 1.325-6.198 2.697-9.25 4.114-13.577-16.37-21.291-36.736-30.564-55.685-5.985-14.36-12.278-28.625-17.813-43.173-2.697-4.708-2.768-12.254-8.963-13.792-.215 6.506 1.867 12.656 4.043 18.689 12.183 28.173 25.455 55.851 39.722 83.035 4.469 9.676 10.383 18.665 14.121 28.669-3.974 1.422-7.925 2.865-11.921 4.213-11.426-22.594-25.691-43.649-37.001-66.336-1.183-2.153-2.366-4.282-3.548-6.409-6.931-14.549-12.396-29.715-16.56-45.281-.733-7.028-.639-14.93 5.417-19.801 2.983-2.316 6.129-4.4 9.226-6.529 25.36-37.285 55.189-71.301 84.312-105.674 13.91-16.491 28.48-32.436 42.414-48.901z" fill="#201e1f"/><path d="M216.656 224.714c7.546-.284 15.117-.047 22.663-.142-1.419 4.992-.686 13.603-8.185 13.295 1.798 7.641 5.323 14.691 8.091 21.979-3.927.118-7.854.189-11.757.258-1.23-6.6-2.673-13.153-4.306-19.682-.71-2.437-1.443-4.873-2.2-7.286-1.443-2.815-2.886-5.607-4.306-8.422z" fill="#fff"/><path d="M262.266 256.603c16.321-1.774 32.554-4.589 48.946-5.796-.523 1.23-1.538 3.643-2.061 4.85-15.658-.308-31.461 5.652-46.885.946z" fill="#201e1f"/><path d="M337.186 253.267c11.402.639 22.826-.047 34.208-.804-29.124 34.373-58.952 68.389-84.312 105.674-3.099 2.127-6.245 4.211-9.226 6.529-1.514-.449-4.542-1.346-6.056-1.824-8.871-1.512-17.863-2.34-26.827-3.215-10.551-3.17-21.625-6.248-32.599-3.146-15.022-2.65-30.139-7.925-45.563-5.391 11.947 5.107 24.981 6.243 37.614 8.538-9.912.473-19.351 3.903-29.169 5.039-18.168 1.233-35.319-6.577-49.797-16.891 2.058-.804 4.116-1.585 6.174-2.318-6.553-17.127-15.921-34.181-14.265-53.156-.828-11.024 5.346-20.581 11.852-28.861 11.119-2.318 21.244-8.209 32.504-9.841 7.523-.331 9.51 8.138 12.041 13.508 26.141 1.441 52.092-2.581 78.043-4.994 4.705-.471 9.155-2.103 13.626-3.572-4.802-.402-9.581-.591-14.381-.781 3.712-.426 7.449-1.843 11.211-1.157 15.426 4.705 31.227-1.254 46.885-.946 11.57.428 23.115-.331 34.681-.778-2.221-.546-4.443-1.067-6.645-1.611zM378.893 252.96c7.005-2.011 14.289-2.295 21.528-2.153-7.047 14.076-15.895 27.844-17.811 43.833-4.14 17.414 4.019 35.203-.426 52.52-5.725 11.757-20.252 13.342-31.631 15.613-17.151 3.596-34.962 0-52.019 3.856-4.045-.83-8.091-1.68-12.112-2.508 4.802-3.548 10.007-6.884 13.484-11.878 23.938-34.915 51.614-67.041 78.987-99.285z" fill="#6ec3ea"/><path d="M161.465 343.754c-11.166-19.398-5.985-45.657 9.747-61.01 6.86 4.876.189 10.858-2.413 15.945-7.428 12.396-9.037 29.192-.426 41.423-1.727.925-5.181 2.744-6.908 3.643z" fill="#201e1f"/><path d="M112.141 336.468c1.49 3.17 3.052 6.316 4.589 9.463 4.968-.239 9.936-.379 14.904-.473-2.058.736-4.116 1.516-6.174 2.318-3.17 1.206-6.316 2.434-9.486 3.667 1.396 1.157 4.187 3.478 5.559 4.637-4.495-.686-8.327-3.146-11.45-6.387l2.271-1.535 2.271-1.041c-.804-3.575-1.585-7.123-2.484-10.648z" fill="#bcbdc1"/><path d="M115.973 351.442c3.17-1.233 6.316-2.46 9.486-3.667 14.478 10.312 31.629 18.121 49.797 16.891-4.613 1.159-9.202 2.316-13.768 3.643-6.411.166-12.68-1.251-18.949-2.245-7.192-2.888-14.549-5.588-21.007-9.985-1.372-1.159-4.164-3.48-5.559-4.637zM166.811 351.09c15.424-2.531 30.541 2.742 45.563 5.391 10.693 2.032 21.717 6.931 32.599 3.146 8.963.875 17.955 1.706 26.827 3.215-4.048 1.159-8.28 1.469-12.467 1.611 2.079 5.985 4.09 11.992 6.172 18.003.849 2.342 1.68 4.731 2.51 7.097 4.921 14.383 10.101 28.669 16.016 42.7 1.774 3.832 3.548 7.662 5.202 11.568 8.211 17.222 17.009 34.326 28.887 49.348 3.903 4.731 8.561 8.871 11.306 14.454-3.88 1.396-7.712 2.957-11.568 4.376-24.508-25.455-40.737-57.462-53.843-89.966-7.854-18.76-13.579-38.324-20.226-57.509-13.319.471-26.377-2.415-39.367-4.897-12.628-2.297-25.663-3.43-37.609-8.538z" fill="#201e1f"/><path d="M212.374 356.481c10.977-3.101 22.048-.024 32.599 3.146-10.882 3.785-21.906-1.114-32.599-3.146z" fill="#bcbdc1"/></svg>