<svg xmlns="http://www.w3.org/2000/svg" width="456.447" height="512" viewBox="0 0 456.44742 512"><path fill="none" d="M230.021 196.646v-88.527l-140.194 88.527zM234.817 107.215v89.431h132.264zM372.513 194.526v-176.387l-134.895 85.181zM234.817 201.443h137.696v58.754h-137.696zM83.934 201.443h146.087v58.754h-146.087z"/><path fill="#fff" d="M377.309 16.187h13.588v180.459h-13.588zM377.309 420.871h13.588v7.494h-13.588zM377.309 201.443h13.588v58.754h-13.588zM377.309 4.796h13.588v6.595h-13.588zM377.309 264.993h13.588v130.398h-13.588zM65.55 201.443h13.588v67.949h-13.588zM358.623 397.789h50.96v20.684h-50.96z"/><path d="M411.981 395.391h-16.288v-395.391h-23.18v12.465l-288.579 182.229v-16.533h-23.18v96.02600000000001h23.18v-9.194h288.576v130.398h-16.288v25.48h16.288v91.129h23.18v-91.129h16.288v-25.48zm-2.398 23.082h-50.96v-20.684h50.96v20.684zm-32.274 9.892v-7.494h13.588v7.494h-13.588zm-298.171-158.974h-13.588v-67.949h13.588v67.949zm155.679-162.176l132.264 89.431h-132.264v-89.431zm-4.796 89.431h-140.194l140.194-88.527v88.527zm160.876 0h-13.588v-180.459h13.588v180.459zm0-191.85v6.595h-13.588v-6.595h13.588zm-13.588 196.646h13.588v58.754h-13.588v-58.754zm13.588 63.55v130.398h-13.588v-130.398h13.588zm-18.384-70.467l-134.895-91.206 134.895-85.181v176.387zm-288.579 6.916h146.087v58.754h-146.087v-58.754zm150.883 58.754v-58.754h137.696v58.754h-137.696z" fill="#231f20"/><g transform="matrix(2.398 0 0 2.398 -19.984 -4.796)"><path d="M151.501 179.667c-7.261 0-13.167 5.906-13.167 13.167s5.906 13.167 13.167 13.167 13.167-5.906 13.167-13.167-5.906-13.167-13.167-13.167zm0 21.334c-4.511 0-8.167-3.656-8.167-8.167 0-4.51 3.656-8.167 8.167-8.167 4.511 0 8.167 3.657 8.167 8.167 0 4.511-3.656 8.167-8.167 8.167z" fill="#231f20"/><circle cx="151.501" cy="192.834" r="8.167" fill="#dd1b23"/></g><g transform="matrix(2.398 0 0 2.398 -19.984 -4.796)"><path d="M185.501 179.667c-7.261 0-13.167 5.906-13.167 13.167s5.906 13.167 13.167 13.167 13.167-5.906 13.167-13.167-5.906-13.167-13.167-13.167zm0 21.334c-4.511 0-8.167-3.656-8.167-8.167 0-4.51 3.656-8.167 8.167-8.167 4.511 0 8.167 3.657 8.167 8.167 0 4.511-3.656 8.167-8.167 8.167z" fill="#231f20"/><circle cx="185.501" cy="192.834" r="8.167" fill="#dd1b23"/></g><g transform="matrix(2.398 0 0 2.398 -19.984 -4.796)"><path d="M21.5 87c-7.261 0-13.167 5.906-13.167 13.167s5.906 13.167 13.167 13.167 13.167-5.906 13.167-13.167-5.906-13.167-13.167-13.167zm0 21.334c-4.511 0-8.167-3.656-8.167-8.167 0-4.51 3.656-8.167 8.167-8.167 4.511 0 8.167 3.657 8.167 8.167 0 4.511-3.656 8.167-8.167 8.167z" fill="#231f20"/><circle cx="21.5" cy="100.167" r="8.167" fill="#dd1b23"/></g><g transform="matrix(2.398 0 0 2.398 -19.984 -4.796)"><path d="M55.5 87c-7.261 0-13.167 5.906-13.167 13.167s5.906 13.167 13.167 13.167 13.167-5.906 13.167-13.167-5.906-13.167-13.167-13.167zm0 21.334c-4.511 0-8.167-3.656-8.167-8.167 0-4.51 3.656-8.167 8.167-8.167 4.511 0 8.167 3.657 8.167 8.167 0 4.511-3.656 8.167-8.167 8.167z" fill="#231f20"/><circle cx="55.5" cy="100.167" r="8.167" fill="#dd1b23"/></g><path d="M402.986 333.162l42.025-42.027-18.94-18.945-42.03 42.027-41.905-41.9-18.94 18.94 41.905 41.905-41.905 41.905 19.068 19.07 41.778-41.778 41.775 41.778 19.07-19.07-41.9-41.905z" fill="#fff" stroke="#231f20" stroke-width="2.398"/><path d="M358.47 369.772l1.758-1.753-6.528-2.76c.753-1.506.628-3.264-1.005-4.895-2.13-2.132-4.516-1.504-6.146.127l-3.89 3.887 10.667 10.54 1.504-1.631-4.391-4.264 1.755-1.88 6.276 2.628zm-7.278-7.78c1.132 1.132 1.005 2.261 0 3.264l-2.257 2.259-3.261-3.261 2.257-2.261c1.005-.878 2.134-1.125 3.261 0zm82.656 21.101c3.386-3.386 3.511-6.902 1.002-9.408l-2.76-2.763-10.54 10.542 2.76 2.76c2.508 2.508 6.024 2.384 9.537-1.132zm-1.631-9.158l1.13 1.132c2.005 2.007.878 4.516-1.13 6.523-2.01 2.01-4.518 3.012-6.403 1.132l-1.252-1.254 7.655-7.533zm-19.696-12.168c3.137-3.012 4.017-6.772 1.506-9.156-2.381-2.508-6.146-1.504-9.286 1.631-3.137 3.012-4.014 6.772-1.633 9.156 2.511 2.511 6.273 1.506 9.413-1.631zm-6.146-6.024c2.13-2.132 4.64-3.259 6.146-1.631 1.631 1.506.501 4.017-1.633 6.149-2.134 2.257-4.64 3.261-6.146 1.631-1.633-1.508-.504-4.014 1.633-6.149zm-58.418-47.874l7.403-13.801-1.631-1.633-13.677 7.401 1.506 1.508 3.389-1.755 3.259 3.259-1.88 3.386 1.631 1.636zm-1.127-9.286l5.518-3.137-3.137 5.52-2.381-2.384zm79.241-7.326c3.134 3.139 6.772 4.144 9.281 1.633 2.261-2.257 2.134-5.022-.125-7.151l-1.88-1.878-3.012 3.01 1.381 1.504 1.504-1.504.501.501c1.254 1.254 1.506 2.636.127 4.014-1.631 1.506-4.142.377-6.146-1.631-2.384-2.257-3.139-4.643-1.631-6.149.878-1.005 1.753-1.005 3.134-.501l.753-2.007c-1.88-.878-3.763-.751-5.396.878-2.508 2.508-1.631 6.146 1.508 9.281zm-1.811 12.854l1.377-1.379-10.54-10.54-1.504 1.504 7.401 7.276-11.29-3.386-1.506 1.506 10.54 10.54 1.508-1.506-7.78-7.652 11.794 3.638zm-15.895 15.89l1.506-1.506-10.542-10.54-1.504 1.506 10.54 10.54zm-41.775 3.362l9.031-9.034-1.631-1.631-10.54 10.54 5.897 5.895 1.506-1.506-4.264-4.264zm29.365 9.051c2.384-2.384 2.132-4.643.374-6.401-1.883-1.88-3.763-1.506-6.146-.504-2.134.88-2.885.755-3.763 0-.504-.626-.628-1.628.377-2.506.751-.878 1.506-1.132 2.885-1.005l.127-2.257c-1.883-.127-3.261.377-4.518 1.633-1.883 1.878-2.01 4.137-.377 5.895 1.883 1.755 3.389 1.381 5.897.504 2.384-.88 3.259-1.002 4.142-.252.875 1.005.753 2.134-.377 3.259-.875.753-2.007 1.257-3.386 1.005l-.127 2.137c1.755.247 3.511-.129 4.892-1.508zm-56.956-42.787c1.506.751 3.261.626 4.895-1.002 2.132-2.134 1.506-4.518-.125-6.146l-3.859-3.859-10.602 10.602 1.631 1.504 4.331-4.329 1.849 1.727-2.636 6.273 1.755 1.753 2.76-6.523zm3.264-5.767c.875 1.002 1.132 2.13 0 3.259-1.132 1.127-2.257 1.002-3.261 0l-2.257-2.257 3.261-3.261 2.257 2.259zm13.801 31.864l10.542-10.54-1.506-1.504-10.664 10.54 1.628 1.504zm41.775 32.746c1.508.751 3.266.628 4.897-1.005 2.132-2.132 1.504-4.516-.127-6.146l-3.89-3.89-10.54 10.664 1.633 1.506 4.264-4.393 1.88 1.758-2.633 6.271 1.753 1.758 2.763-6.523zm3.266-5.775c.875 1.005 1.127 2.137 0 3.261-1.132 1.132-2.261 1.005-3.266 0l-2.257-2.257 3.261-3.261 2.261 2.257zm17.185 35.382l7.403-13.801-1.631-1.631-13.677 7.401 1.506 1.631 3.386-1.88 3.259 3.261-1.88 3.386 1.633 1.633zm-1.13-9.286l5.523-3.139-3.142 5.523-2.381-2.384zm-34.152-23.185c2.384-2.381 2.137-4.638.377-6.396-1.88-1.88-3.765-1.504-6.146-.504-2.134.88-2.887.753-3.763 0-.501-.626-.628-1.631.374-2.508.753-.875 1.506-1.132 2.885-1.002l.129-2.257c-1.885-.127-3.261.374-4.52 1.628-1.883 1.883-2.005 4.142-.374 5.899 1.88 1.755 3.386 1.379 5.897.504 2.381-.88 3.261-1.005 4.139-.254.878 1.005.755 2.134-.377 3.266-.875.751-2.007 1.252-3.384 1l-.127 2.134c1.755.249 3.508-.129 4.89-1.511zm-22.072 11.537c3.012 3.137 6.777 4.014 9.161 1.631 2.508-2.508 1.504-6.273-1.633-9.408-3.012-3.139-6.777-4.017-9.158-1.508-2.511 2.386-1.506 6.149 1.631 9.286zm6.022-6.149c2.259 2.132 3.261 4.645 1.633 6.146-1.504 1.631-4.017.504-6.146-1.633-2.137-2.132-3.261-4.643-1.633-6.146 1.506-1.628 4.017-.499 6.146 1.633zm-22.816 33.478c1.758-1.753 1.758-3.638.88-5.645l-2.007.751c.626 1.381.626 2.384-.252 3.261-1.633 1.631-4.139.504-6.271-1.633-2.134-2.132-3.261-4.516-1.631-6.146.878-.875 1.753-.875 3.01-.377l.878-2.007c-1.883-.875-3.638-.875-5.393.875-2.508 2.513-1.506 6.149 1.631 9.286 3.137 3.014 6.648 4.146 9.156 1.636z" fill="#231f20"/></svg>